<mxfile host="65bd71144e">
    <diagram id="VeqpCgD43Y15wj6W4ye0" name="Page-1">
        <mxGraphModel dx="878" dy="604" grid="1" gridSize="10" guides="1" tooltips="1" connect="1" arrows="1" fold="1" page="1" pageScale="1" pageWidth="850" pageHeight="1100" math="0" shadow="0">
            <root>
                <mxCell id="0"/>
                <mxCell id="1" parent="0"/>
                <mxCell id="24" style="edgeStyle=orthogonalEdgeStyle;html=1;strokeColor=default;fontSize=11;startArrow=classic;startFill=1;exitX=0.914;exitY=0.527;exitDx=0;exitDy=0;exitPerimeter=0;" edge="1" parent="1" source="26">
                    <mxGeometry relative="1" as="geometry">
                        <mxPoint x="685" y="490" as="targetPoint"/>
                        <mxPoint x="490" y="560" as="sourcePoint"/>
                    </mxGeometry>
                </mxCell>
                <mxCell id="25" value="Continous&lt;br&gt;Deployment" style="edgeLabel;html=1;align=center;verticalAlign=middle;resizable=0;points=[];fontSize=11;" vertex="1" connectable="0" parent="24">
                    <mxGeometry x="0.143" y="-3" relative="1" as="geometry">
                        <mxPoint as="offset"/>
                    </mxGeometry>
                </mxCell>
                <mxCell id="2" value="ESP32" style="pointerEvents=1;shadow=0;dashed=0;html=1;strokeColor=none;fillColor=#4495D1;labelPosition=center;verticalLabelPosition=bottom;verticalAlign=top;align=center;outlineConnect=0;shape=mxgraph.veeam.cpu;" vertex="1" parent="1">
                    <mxGeometry x="230" y="540" width="50" height="44.8" as="geometry"/>
                </mxCell>
                <mxCell id="6" value="Flash" style="edgeStyle=none;html=1;" edge="1" parent="1" source="3" target="2">
                    <mxGeometry relative="1" as="geometry"/>
                </mxCell>
                <mxCell id="13" style="edgeStyle=orthogonalEdgeStyle;html=1;exitX=0.755;exitY=0;exitDx=0;exitDy=0;exitPerimeter=0;strokeColor=default;" edge="1" parent="1" source="3" target="10">
                    <mxGeometry relative="1" as="geometry">
                        <Array as="points">
                            <mxPoint x="268" y="360"/>
                            <mxPoint x="365" y="360"/>
                            <mxPoint x="365" y="399"/>
                        </Array>
                    </mxGeometry>
                </mxCell>
                <mxCell id="14" value="Continous &lt;br&gt;Integration" style="edgeLabel;html=1;align=center;verticalAlign=middle;resizable=0;points=[];" vertex="1" connectable="0" parent="13">
                    <mxGeometry x="-0.1127" relative="1" as="geometry">
                        <mxPoint as="offset"/>
                    </mxGeometry>
                </mxCell>
                <mxCell id="3" value="&lt;p style=&quot;line-height: 0%;&quot;&gt;IDE&lt;/p&gt;" style="verticalLabelPosition=middle;html=1;verticalAlign=middle;align=right;strokeColor=none;fillColor=#00BEF2;shape=mxgraph.azure.visual_studio_online;labelPosition=left;" vertex="1" parent="1">
                    <mxGeometry x="230" y="417.5" width="50" height="37.5" as="geometry"/>
                </mxCell>
                <mxCell id="8" value="Build" style="edgeStyle=none;html=1;entryX=1.047;entryY=0.8;entryDx=0;entryDy=0;entryPerimeter=0;" edge="1" parent="1" source="3" target="3">
                    <mxGeometry x="0.091" y="20" relative="1" as="geometry">
                        <mxPoint as="offset"/>
                    </mxGeometry>
                </mxCell>
                <mxCell id="20" value="Storage" style="edgeStyle=orthogonalEdgeStyle;html=1;strokeColor=default;fontSize=11;" edge="1" parent="1" source="10" target="19">
                    <mxGeometry relative="1" as="geometry">
                        <Array as="points">
                            <mxPoint x="475" y="360"/>
                            <mxPoint x="685" y="360"/>
                        </Array>
                    </mxGeometry>
                </mxCell>
                <mxCell id="10" value="Version Control" style="dashed=0;outlineConnect=0;html=1;align=center;labelPosition=center;verticalLabelPosition=bottom;verticalAlign=top;shape=mxgraph.weblogos.github;aspect=fixed;" vertex="1" parent="1">
                    <mxGeometry x="450" y="373.75" width="50" height="50" as="geometry"/>
                </mxCell>
                <mxCell id="15" value="Build&lt;br&gt;Test" style="edgeStyle=orthogonalEdgeStyle;html=1;strokeColor=default;" edge="1" parent="1" source="10" target="10">
                    <mxGeometry x="0.0417" y="20" relative="1" as="geometry">
                        <mxPoint as="offset"/>
                    </mxGeometry>
                </mxCell>
                <mxCell id="19" value="AWS S3" style="sketch=0;pointerEvents=1;shadow=0;dashed=0;html=1;strokeColor=none;fillColor=#DF8C42;labelPosition=center;verticalLabelPosition=bottom;verticalAlign=top;align=center;outlineConnect=0;shape=mxgraph.veeam2.aws_s3;fontSize=9;aspect=fixed;" vertex="1" parent="1">
                    <mxGeometry x="660" y="417.5" width="50" height="50" as="geometry"/>
                </mxCell>
                <mxCell id="27" value="Flash*" style="edgeStyle=orthogonalEdgeStyle;html=1;strokeColor=default;fontSize=11;startArrow=classic;startFill=1;dashed=1;dashPattern=8 8;" edge="1" parent="1" source="26" target="2">
                    <mxGeometry relative="1" as="geometry"/>
                </mxCell>
                <mxCell id="26" value="OTA&lt;br&gt;Task" style="html=1;verticalLabelPosition=bottom;align=center;labelBackgroundColor=none;verticalAlign=top;strokeWidth=2;strokeColor=#0080F0;shadow=0;dashed=0;shape=mxgraph.ios7.icons.wifi;pointerEvents=1;fontSize=11;aspect=fixed;" vertex="1" parent="1">
                    <mxGeometry x="425" y="544.73" width="50" height="35.35" as="geometry"/>
                </mxCell>
            </root>
        </mxGraphModel>
    </diagram>
</mxfile>